<?xml version="1.0" encoding="utf-8"?>
<!-- Generator: Adobe Illustrator 19.2.0, SVG Export Plug-In . SVG Version: 6.00 Build 0)  -->
<svg version="1.1" xmlns="http://www.w3.org/2000/svg" xmlns:xlink="http://www.w3.org/1999/xlink" x="0px" y="0px"
	 viewBox="0 0 1214 941" style="enable-background:new 0 0 1214 941;" xml:space="preserve">
<style type="text/css">
	.st0{fill:#204056;}
	.st1{opacity:0.2;fill:#4E768D;}
	.st2{fill:#52B1DB;}
	.st3{fill:#FFFFFF;}
	.st4{fill:#7A98A9;}
	.st5{fill:#D7F6F0;}
	.st6{fill:#B0EDE1;}
	.st7{fill:#88E3D2;}
	.st8{fill:#61DAC3;}
	.st9{fill:#39D1B4;}
	.st10{fill:#37C2AA;}
	.st11{fill:#34B3A0;}
	.st12{fill:#1A7B72;}
	.st13{fill:#004444;}
	.st14{fill:#FBBDBD;}
	.st15{fill:#FA9C9D;}
	.st16{fill:#F87B7C;}
	.st17{fill:#F65A5B;}
	.st18{fill:#C64748;}
	.st19{fill:#963435;}
	.st20{fill:#652022;}
	.st21{fill:#350D0F;}
	.st22{fill:#BAE0F1;}
	.st23{fill:#97D0E9;}
	.st24{fill:#75C1E2;}
	.st25{fill:#4292B4;}
	.st26{fill:#32728D;}
	.st27{fill:#215366;}
	.st28{fill:#11333F;}
	.st29{fill:#FDDEDE;}
	.st30{fill:#DCEFF8;}
	.st31{fill:#A7BBC6;}
	.st32{fill:#4E768D;}
	.st33{fill:#225470;}
	.st34{fill:#214A63;}
	.st35{fill:#163142;}
	.st36{fill:#0D222D;}
	.st37{fill:#D3DDE2;}
	.st38{fill:none;stroke:#4E768D;stroke-miterlimit:10;}
	.st39{opacity:0.5;fill:#4E768D;}
	.st40{opacity:0.25;fill:#4E768D;}
</style>
<g id="BG">
	<rect class="st0" width="1214" height="941"/>
</g>
<g id="CONTENTS">
	<g>
		<g>
			<path class="st4" d="M531.9,850v-15.9c-0.2,0.2-0.6,0.4-1.2,0.7s-1.1,0.5-1.6,0.7v-1.3c1.6-0.8,2.7-1.3,3.1-1.6h1.2V850H531.9z"
				/>
			<path class="st4" d="M537.3,850l-0.4-1.5l6.1-7.1c0.8-0.9,1.4-1.8,1.8-2.5s0.6-1.4,0.6-2c0-1.1-0.3-2-0.8-2.5s-1.3-0.9-2.3-0.9
				c-0.7,0-1.5,0.1-2.2,0.3s-1.3,0.5-1.8,1l-0.6-1.1c1-0.9,2.5-1.4,4.5-1.4c1.5,0,2.7,0.4,3.5,1.2s1.3,1.9,1.3,3.2
				c0,0.9-0.2,1.8-0.7,2.7s-1.2,1.9-2.3,3.1l-5.3,6.1h8.4l-0.1,1.4H537.3z"/>
			<path class="st4" d="M550.2,843.8v-1.3h5.7v1.3H550.2z"/>
			<path class="st4" d="M564.1,850.3c-1.2,0-2.3-0.3-3.2-0.9s-1.6-1.4-2-2.4s-0.7-2.1-0.7-3.3c0-0.9,0.1-1.8,0.4-2.6
				s0.6-1.5,1.1-2.2s1.1-1.1,1.9-1.5s1.6-0.5,2.6-0.5c0.6,0,1.2,0.1,1.8,0.2s1.1,0.4,1.4,0.6l-0.5,1.1c-0.8-0.5-1.8-0.7-2.9-0.7
				c-1.3,0-2.4,0.5-3.2,1.5s-1.2,2.4-1.2,4c0,1.6,0.4,2.9,1.2,3.9s1.8,1.5,3.2,1.5c0.9,0,1.9-0.2,3-0.7l0.2,1
				c-0.4,0.3-0.8,0.5-1.4,0.6S564.7,850.3,564.1,850.3z"/>
			<path class="st4" d="M575.2,850.3c-1.2,0-2.2-0.3-3.1-0.9s-1.6-1.4-2-2.4s-0.7-2.1-0.7-3.4c0-1,0.1-1.8,0.4-2.7s0.7-1.5,1.2-2.1
				s1.1-1.1,1.9-1.4s1.6-0.5,2.5-0.5c1.2,0,2.2,0.3,3.1,0.9s1.5,1.4,2,2.4s0.7,2.1,0.7,3.4c0,1.3-0.2,2.4-0.7,3.4s-1.1,1.8-2,2.4
				S576.4,850.3,575.2,850.3z M575.3,849.1c0.9,0,1.7-0.2,2.4-0.7s1.1-1.2,1.4-2s0.4-1.7,0.4-2.8c0-1.7-0.4-3-1.1-4
				s-1.8-1.5-3.2-1.5c-0.9,0-1.7,0.3-2.4,0.8s-1.1,1.2-1.4,2s-0.5,1.8-0.5,2.8c0,1.6,0.4,2.9,1.1,3.9S573.9,849.1,575.3,849.1z"/>
			<path class="st4" d="M587.2,850.3c-1.1,0-1.9-0.2-2.4-0.7s-0.8-1.3-0.8-2.4v-15l1.4-0.1v15c0,0.8,0.1,1.3,0.4,1.6
				s0.7,0.4,1.3,0.4c0.5,0,1.1-0.1,1.8-0.3l0.1,1.1C588.3,850.2,587.6,850.3,587.2,850.3z"/>
			<path class="st4" d="M595.5,850.3c-0.7,0-1.3-0.1-1.9-0.2s-1.1-0.4-1.6-0.7s-0.9-0.8-1.2-1.4s-0.4-1.3-0.4-2.1v-8.7h1.5v8.8
				c0,0.6,0.1,1.1,0.3,1.5s0.5,0.7,0.8,1s0.7,0.4,1.1,0.5s0.9,0.1,1.4,0.1c0.5,0,1,0,1.4-0.1s0.8-0.2,1.1-0.5s0.6-0.5,0.8-1
				s0.3-0.9,0.3-1.5v-8.8h1.5v8.7c0,0.7-0.1,1.2-0.3,1.8s-0.4,0.9-0.8,1.3s-0.7,0.6-1.1,0.8s-0.9,0.4-1.4,0.5
				S596.1,850.3,595.5,850.3z"/>
			<path class="st4" d="M603.7,850c0-7.8,0-12,0-12.8h1.3l0.2,2c0.4-0.6,0.9-1.2,1.7-1.6s1.5-0.6,2.4-0.6c2.1,0,3.3,0.8,3.9,2.4
				c0.9-1.6,2.4-2.4,4.3-2.4c1.4,0,2.4,0.4,3.1,1.2s1,2,1,3.6v8.3H620v-6.3c0-0.6,0-1.1,0-1.5s-0.1-0.8-0.1-1.3s-0.1-0.9-0.3-1.1
				s-0.3-0.6-0.5-0.8s-0.4-0.5-0.8-0.6s-0.7-0.2-1.1-0.2c-1,0-1.8,0.3-2.5,0.9s-1.2,1.4-1.4,2.5c0,0.8,0,1.4,0.1,1.9v6.7H612v-6.5
				c0-0.7,0-1.2-0.1-1.7s-0.1-1-0.2-1.4s-0.3-0.9-0.5-1.1s-0.5-0.5-0.8-0.7s-0.7-0.3-1.2-0.3c-1.1,0-2,0.3-2.7,0.8s-1.2,1.3-1.4,2.3
				c0,0.3,0,0.8,0,1.4v7.3H603.7z"/>
			<path class="st4" d="M624.9,850v-12.8h1.3l0.2,2c0.5-0.7,1.1-1.2,1.9-1.6s1.6-0.6,2.5-0.6c1.5,0,2.6,0.4,3.3,1.2s1,2.1,1,3.9v8
				h-1.5v-8.6c0-1.1-0.3-2-0.7-2.5s-1.2-0.8-2.2-0.8c-1.2,0-2.1,0.3-2.9,0.9s-1.2,1.3-1.4,2.3c0,0.4,0,0.8,0,1.1v7.5H624.9z"/>
			<path class="st4" d="M645.8,856l-0.2-1.3h2.7c0.6,0,1.1-0.1,1.6-0.2s0.8-0.2,1.2-0.4s0.6-0.4,0.8-0.7s0.4-0.6,0.5-0.9
				s0.2-0.7,0.3-1.2s0.1-0.9,0.1-1.3s0-0.9,0-1.5c0,0.1,0,0.1,0-0.1l-0.1-0.8c-0.5,0.7-1.1,1.3-1.7,1.7s-1.5,0.6-2.5,0.6
				c-0.8,0-1.5-0.1-2.1-0.4s-1.1-0.6-1.5-1.1s-0.7-0.9-1-1.5s-0.5-1.1-0.6-1.7s-0.2-1.1-0.2-1.7c0-0.7,0.1-1.3,0.2-2
				s0.3-1.2,0.6-1.8s0.6-1.1,1.1-1.5s1-0.8,1.6-1s1.4-0.4,2.2-0.4c0.8,0,1.5,0.2,2.2,0.5s1.2,0.8,1.8,1.6l0.1-1.8h1.3v11.9
				c0,0.5,0,0.9,0,1.2s-0.1,0.7-0.1,1.3s-0.2,1-0.3,1.3s-0.4,0.7-0.7,1.2s-0.7,0.8-1.1,1s-1,0.4-1.6,0.6s-1.4,0.3-2.2,0.3H645.8z
				 M648.7,848.8c0.6,0,1.1-0.1,1.5-0.3s0.8-0.4,1.1-0.7s0.6-0.7,0.8-1.1s0.4-0.8,0.4-1.3s0.1-0.9,0.1-1.3v-1.3
				c0-0.6-0.1-1.2-0.2-1.7s-0.4-1-0.7-1.5s-0.7-0.8-1.3-1.1s-1.2-0.4-1.9-0.4c-0.6,0-1.1,0.1-1.6,0.3s-0.8,0.5-1.1,0.9
				s-0.5,0.8-0.8,1.3s-0.3,1-0.4,1.5s-0.1,1-0.1,1.6c0,0.5,0,0.9,0.1,1.4s0.2,0.9,0.4,1.4s0.4,0.9,0.7,1.2s0.7,0.6,1.2,0.8
				S648.1,848.8,648.7,848.8z"/>
			<path class="st4" d="M657.6,850c0-7.5,0-11.8,0-12.8h1.2l0.1,2.5c0.5-0.8,1-1.4,1.8-1.9s1.5-0.7,2.2-0.7c0.3,0,0.7,0,1,0.1
				l-0.1,1.2c-0.3,0-0.6-0.1-0.9-0.1c-1.1,0-2,0.4-2.7,1.3s-1.1,1.9-1.1,3v7.4H657.6z"/>
			<path class="st4" d="M666.1,834.5v-2h1.5v2H666.1z M666.1,850v-12.8h1.5V850H666.1z"/>
			<path class="st4" d="M676,850.3c-1.7,0-3-0.6-4-1.8s-1.4-2.8-1.4-4.9c0-2,0.5-3.6,1.5-4.8s2.3-1.8,3.9-1.8c0.8,0,1.6,0.2,2.4,0.5
				s1.4,0.9,1.8,1.6v-0.4v-6.5l1.4-0.1v18h-1.2l-0.2-1.9c-0.4,0.7-1,1.3-1.8,1.6S676.8,850.3,676,850.3z M675.9,849.1
				c0.7,0,1.4-0.1,1.9-0.4s1-0.6,1.3-1.1s0.6-1,0.7-1.7s0.2-1.3,0.2-2.1c0-3.8-1.4-5.7-4.2-5.7c-0.7,0-1.2,0.2-1.8,0.5
				s-0.9,0.7-1.2,1.3s-0.5,1.1-0.7,1.7s-0.2,1.3-0.2,2c0,0.6,0,1.2,0.1,1.7s0.2,1,0.4,1.5s0.4,0.9,0.7,1.2s0.7,0.6,1.1,0.8
				S675.4,849.1,675.9,849.1z"/>
		</g>
	</g>
	<g>
		<g>
			<path class="st3" d="M483,119.8v-17.4h4.8c2.2,0,3.7,0.4,4.7,1.1s1.5,1.8,1.5,3.3c0,0.2,0,0.3,0,0.4s0,0.3-0.1,0.5
				s-0.1,0.5-0.1,0.6s-0.2,0.4-0.3,0.6s-0.3,0.5-0.5,0.7s-0.5,0.4-0.8,0.6s-0.7,0.3-1.1,0.5c1.2,0.2,2.2,0.7,2.8,1.5s1,1.7,1,2.8
				c0,1.5-0.5,2.7-1.5,3.6s-2.5,1.3-4.5,1.3H483z M484.5,110.1h4c0.6,0,1.1,0,1.6-0.1s0.8-0.3,1.2-0.5s0.6-0.6,0.8-1s0.3-1,0.3-1.6
				c0-1.2-0.4-2.1-1.1-2.5s-1.9-0.7-3.6-0.7h-3.2V110.1z M484.5,118.6h4c3.2,0,4.7-1.2,4.7-3.7c0-1.4-0.4-2.3-1.3-2.8
				s-2.2-0.8-4.1-0.8h-3.3V118.6z"/>
			<path class="st3" d="M502.7,120.1c-1.2,0-2.2-0.3-3.1-0.9s-1.6-1.4-2-2.4s-0.7-2.1-0.7-3.4c0-1,0.1-1.8,0.4-2.7s0.7-1.5,1.2-2.1
				s1.1-1.1,1.9-1.4s1.6-0.5,2.5-0.5c1.2,0,2.2,0.3,3.1,0.9s1.5,1.4,2,2.4s0.7,2.1,0.7,3.4c0,1.3-0.2,2.4-0.7,3.4s-1.1,1.8-2,2.4
				S503.9,120.1,502.7,120.1z M502.8,118.9c0.9,0,1.7-0.2,2.4-0.7s1.1-1.2,1.4-2s0.4-1.7,0.4-2.8c0-1.7-0.4-3-1.1-4
				s-1.8-1.5-3.2-1.5c-0.9,0-1.7,0.3-2.4,0.8s-1.1,1.2-1.4,2s-0.5,1.8-0.5,2.8c0,1.6,0.4,2.9,1.1,3.9S501.4,118.9,502.8,118.9z"/>
			<path class="st3" d="M516.6,120.1c-1.2,0-2.2-0.3-3.1-0.9s-1.6-1.4-2-2.4s-0.7-2.1-0.7-3.4c0-1,0.1-1.8,0.4-2.7s0.7-1.5,1.2-2.1
				s1.1-1.1,1.9-1.4s1.6-0.5,2.5-0.5c1.2,0,2.2,0.3,3.1,0.9s1.5,1.4,2,2.4s0.7,2.1,0.7,3.4c0,1.3-0.2,2.4-0.7,3.4s-1.1,1.8-2,2.4
				S517.8,120.1,516.6,120.1z M516.7,118.9c0.9,0,1.7-0.2,2.4-0.7s1.1-1.2,1.4-2s0.4-1.7,0.4-2.8c0-1.7-0.4-3-1.1-4
				s-1.8-1.5-3.2-1.5c-0.9,0-1.7,0.3-2.4,0.8s-1.1,1.2-1.4,2s-0.5,1.8-0.5,2.8c0,1.6,0.4,2.9,1.1,3.9S515.3,118.9,516.7,118.9z"/>
			<path class="st3" d="M529,120.1c-1.1,0-1.9-0.2-2.4-0.7s-0.8-1.3-0.8-2.4V108H524l0.1-0.9l1.7-0.2l0.4-2.9l1-0.1v3h3.8v1.1h-3.8
				v8.6c0,0.9,0.1,1.5,0.4,1.8s0.8,0.5,1.6,0.5c0.5,0,1.1-0.1,1.8-0.3l0.1,1.1C530.2,120,529.5,120.1,529,120.1z"/>
			<path class="st3" d="M537,120.1c-0.8,0-1.6-0.1-2.3-0.3s-1.3-0.4-1.7-0.7l0.2-1.2c1.3,0.7,2.5,1,3.7,1c2.1,0,3.2-0.8,3.3-2.4
				c0-0.7-0.2-1.2-0.6-1.5s-1.3-0.8-2.6-1.2c-0.7-0.2-1-0.4-1.1-0.4c-2-0.6-3-1.7-3-3.2c0-0.9,0.4-1.7,1.2-2.4s1.9-1,3.2-1
				s2.6,0.3,3.8,0.8l-0.5,1.1c-1.2-0.5-2.3-0.7-3.4-0.7c-0.9,0-1.6,0.2-2.1,0.6s-0.8,1-0.8,1.6c0,0.6,0.2,1,0.5,1.3s1,0.6,2,0.9
				c0.1,0,0.3,0.1,0.6,0.2s0.5,0.2,0.5,0.2c1.4,0.4,2.3,0.9,2.8,1.5s0.8,1.3,0.8,2.3c0,1.1-0.4,2-1.3,2.6S538.4,120.1,537,120.1z"/>
			<path class="st3" d="M548,120.1c-1.1,0-1.9-0.2-2.4-0.7s-0.8-1.3-0.8-2.4V108H543l0.1-0.9l1.7-0.2l0.4-2.9l1-0.1v3h3.8v1.1h-3.8
				v8.6c0,0.9,0.1,1.5,0.4,1.8s0.8,0.5,1.6,0.5c0.5,0,1.1-0.1,1.8-0.3l0.1,1.1C549.2,120,548.5,120.1,548,120.1z"/>
			<path class="st3" d="M552.3,119.8c0-7.5,0-11.8,0-12.8h1.2l0.1,2.5c0.5-0.8,1-1.4,1.8-1.9s1.5-0.7,2.2-0.7c0.3,0,0.7,0,1,0.1
				l-0.1,1.2c-0.3,0-0.6-0.1-0.9-0.1c-1.1,0-2,0.4-2.7,1.3s-1.1,1.9-1.1,3v7.4H552.3z"/>
			<path class="st3" d="M563.9,120.1c-1.2,0-2.2-0.3-2.9-0.9s-1.1-1.5-1.1-2.6c0-0.7,0.1-1.3,0.4-1.8s0.7-0.9,1.3-1.2
				s1.2-0.5,1.9-0.7s1.5-0.3,2.5-0.4c1-0.1,1.7-0.1,2.2-0.2v-1.4c0-1-0.2-1.7-0.7-2.2s-1.2-0.7-2.2-0.7c-1.4,0-2.6,0.3-3.8,1
				c0-0.1-0.1-0.2-0.2-0.5s-0.2-0.5-0.2-0.6c0.5-0.3,1.1-0.6,1.9-0.8s1.5-0.3,2.3-0.3c1.5,0,2.6,0.3,3.3,1s1,1.8,1,3.5v8.6h-1.1
				c0-0.2-0.1-0.5-0.2-1.1s-0.1-0.8-0.1-0.8C567.2,119.4,565.8,120.1,563.9,120.1z M564,118.9c1,0,1.9-0.3,2.7-0.9s1.3-1.4,1.5-2.5
				v-2.2c-1.1,0.1-1.7,0.1-1.7,0.1c-1.9,0.2-3.2,0.5-4,0.9s-1.1,1.2-1.1,2.1c0,0.8,0.2,1.4,0.7,1.8S563.2,118.9,564,118.9z"/>
			<path class="st3" d="M573.1,125.5V107h1.3l0.1,1.8c0.6-0.7,1.2-1.2,1.8-1.5s1.3-0.5,2.2-0.5c1.8,0,3.2,0.6,4.1,1.8s1.4,2.9,1.4,5
				c0,1.9-0.5,3.5-1.4,4.7s-2.3,1.8-3.9,1.8c-0.8,0-1.6-0.2-2.4-0.6s-1.3-0.9-1.8-1.6c0,1,0.1,1.9,0.1,2.8v4.7L573.1,125.5z
				 M578.6,118.9c0.7,0,1.3-0.2,1.8-0.5s0.9-0.7,1.2-1.3s0.5-1.1,0.7-1.7s0.2-1.3,0.2-2c0-0.7-0.1-1.3-0.2-2s-0.4-1.2-0.7-1.7
				s-0.7-1-1.2-1.3s-1.1-0.5-1.8-0.5c-0.7,0-1.4,0.1-1.9,0.4s-0.9,0.6-1.3,1.1s-0.5,1-0.7,1.7s-0.2,1.3-0.2,2.1
				c0,0.9,0.1,1.7,0.2,2.3s0.3,1.3,0.7,1.8s0.7,0.9,1.2,1.2S577.8,118.9,578.6,118.9z"/>
			<path class="st3" d="M600.2,120.1c-1.1,0-2-0.2-2.9-0.5s-1.7-0.7-2.3-1.3s-1.2-1.2-1.6-1.9s-0.8-1.6-1-2.5s-0.3-1.8-0.3-2.8
				c0-1.8,0.3-3.3,1-4.7s1.6-2.4,2.9-3.2s2.8-1.2,4.6-1.2c2,0,3.7,0.4,5.2,1.3l-0.7,1.2c-0.6-0.4-1.4-0.7-2.2-0.9s-1.6-0.4-2.3-0.4
				c-1.1,0-2.2,0.2-3.1,0.6s-1.6,1-2.2,1.7s-1,1.5-1.3,2.5s-0.4,1.9-0.4,3c0,1.2,0.1,2.2,0.4,3.2s0.7,1.7,1.3,2.4s1.3,1.2,2.2,1.6
				s2,0.6,3.1,0.6c1.2,0,2.6-0.3,4.1-0.9v-5.6h-4.3l0.1-1.3h5.6v7.7c-1,0.5-1.9,0.8-2.8,1S601.4,120.1,600.2,120.1z"/>
			<path class="st3" d="M609.5,119.8c0-7.5,0-11.8,0-12.8h1.2l0.1,2.5c0.5-0.8,1-1.4,1.8-1.9s1.5-0.7,2.2-0.7c0.3,0,0.7,0,1,0.1
				l-0.1,1.2c-0.3,0-0.6-0.1-0.9-0.1c-1.1,0-2,0.4-2.7,1.3s-1.1,1.9-1.1,3v7.4H609.5z"/>
			<path class="st3" d="M618.1,104.3v-2h1.5v2H618.1z M618.1,119.8V107h1.5v12.8H618.1z"/>
			<path class="st3" d="M628,120.1c-1.7,0-3-0.6-4-1.8s-1.4-2.8-1.4-4.9c0-2,0.5-3.6,1.5-4.8s2.3-1.8,3.9-1.8c0.8,0,1.6,0.2,2.4,0.5
				s1.4,0.9,1.8,1.6v-0.4V102l1.4-0.1v18h-1.2l-0.2-1.9c-0.4,0.7-1,1.3-1.8,1.6S628.8,120.1,628,120.1z M627.9,118.9
				c0.7,0,1.4-0.1,1.9-0.4s1-0.6,1.3-1.1s0.6-1,0.7-1.7s0.2-1.3,0.2-2.1c0-3.8-1.4-5.7-4.2-5.7c-0.7,0-1.2,0.2-1.8,0.5
				s-0.9,0.7-1.2,1.3s-0.5,1.1-0.7,1.7s-0.2,1.3-0.2,2c0,0.6,0,1.2,0.1,1.7s0.2,1,0.4,1.5s0.4,0.9,0.7,1.2s0.7,0.6,1.1,0.8
				S627.4,118.9,627.9,118.9z"/>
			<path class="st3" d="M642.8,119.8v-17.4h9.7l-0.1,1.2h-8.2v6.6h7.8v1.3h-7.8v7.1h8.4l-0.1,1.3H642.8z"/>
			<path class="st3" d="M654.5,119.8l4.8-6.5l-4.6-6.3h1.6l3.8,5.3l3.7-5.3h1.7l-4.6,6.4l4.7,6.5h-1.6l-3.9-5.4l-3.9,5.4H654.5z"/>
			<path class="st3" d="M671.1,120.1c-1.2,0-2.2-0.3-2.9-0.9s-1.1-1.5-1.1-2.6c0-0.7,0.1-1.3,0.4-1.8s0.7-0.9,1.3-1.2
				s1.2-0.5,1.9-0.7s1.5-0.3,2.5-0.4c1-0.1,1.7-0.1,2.2-0.2v-1.4c0-1-0.2-1.7-0.7-2.2s-1.2-0.7-2.2-0.7c-1.4,0-2.6,0.3-3.8,1
				c0-0.1-0.1-0.2-0.2-0.5s-0.2-0.5-0.2-0.6c0.5-0.3,1.1-0.6,1.9-0.8s1.5-0.3,2.3-0.3c1.5,0,2.6,0.3,3.3,1s1,1.8,1,3.5v8.6h-1.1
				c0-0.2-0.1-0.5-0.2-1.1s-0.1-0.8-0.1-0.8C674.4,119.4,672.9,120.1,671.1,120.1z M671.1,118.9c1,0,1.9-0.3,2.7-0.9
				s1.3-1.4,1.5-2.5v-2.2c-1.1,0.1-1.7,0.1-1.7,0.1c-1.9,0.2-3.2,0.5-4,0.9s-1.1,1.2-1.1,2.1c0,0.8,0.2,1.4,0.7,1.8
				S670.3,118.9,671.1,118.9z"/>
			<path class="st3" d="M680.3,119.8c0-7.8,0-12,0-12.8h1.3l0.2,2c0.4-0.6,0.9-1.2,1.7-1.6s1.5-0.6,2.4-0.6c2.1,0,3.3,0.8,3.9,2.4
				c0.9-1.6,2.4-2.4,4.3-2.4c1.4,0,2.4,0.4,3.1,1.2s1,2,1,3.6v8.3h-1.5v-6.3c0-0.6,0-1.1,0-1.5s-0.1-0.8-0.1-1.3s-0.1-0.9-0.3-1.1
				s-0.3-0.6-0.5-0.8s-0.4-0.5-0.8-0.6s-0.7-0.2-1.1-0.2c-1,0-1.8,0.3-2.5,0.9s-1.2,1.4-1.4,2.5c0,0.8,0,1.4,0.1,1.9v6.7h-1.4v-6.5
				c0-0.7,0-1.2-0.1-1.7s-0.1-1-0.2-1.4s-0.3-0.9-0.5-1.1s-0.5-0.5-0.8-0.7s-0.7-0.3-1.2-0.3c-1.1,0-2,0.3-2.7,0.8s-1.2,1.3-1.4,2.3
				c0,0.3,0,0.8,0,1.4v7.3H680.3z"/>
			<path class="st3" d="M701.4,125.5V107h1.3l0.1,1.8c0.6-0.7,1.2-1.2,1.8-1.5s1.3-0.5,2.2-0.5c1.8,0,3.2,0.6,4.1,1.8s1.4,2.9,1.4,5
				c0,1.9-0.5,3.5-1.4,4.7s-2.3,1.8-3.9,1.8c-0.8,0-1.6-0.2-2.4-0.6s-1.3-0.9-1.8-1.6c0,1,0.1,1.9,0.1,2.8v4.7L701.4,125.5z
				 M706.9,118.9c0.7,0,1.3-0.2,1.8-0.5s0.9-0.7,1.2-1.3s0.5-1.1,0.7-1.7s0.2-1.3,0.2-2c0-0.7-0.1-1.3-0.2-2s-0.4-1.2-0.7-1.7
				s-0.7-1-1.2-1.3s-1.1-0.5-1.8-0.5c-0.7,0-1.4,0.1-1.9,0.4s-0.9,0.6-1.3,1.1s-0.5,1-0.7,1.7s-0.2,1.3-0.2,2.1
				c0,0.9,0.1,1.7,0.2,2.3s0.3,1.3,0.7,1.8s0.7,0.9,1.2,1.2S706.1,118.9,706.9,118.9z"/>
			<path class="st3" d="M718.4,120.1c-1.1,0-1.9-0.2-2.4-0.7s-0.8-1.3-0.8-2.4v-15l1.4-0.1v15c0,0.8,0.1,1.3,0.4,1.6
				s0.7,0.4,1.3,0.4c0.5,0,1.1-0.1,1.8-0.3l0.1,1.1C719.5,120,718.9,120.1,718.4,120.1z"/>
			<path class="st3" d="M727.2,120.1c-1.8,0-3.2-0.6-4.2-1.8s-1.6-2.8-1.6-4.8c0-2,0.5-3.6,1.5-4.8s2.3-1.9,4-1.9
				c1.5,0,2.7,0.5,3.6,1.6s1.4,2.5,1.4,4.3c0,0.1,0,0.2,0,0.4s0,0.4,0,0.5H723c0,1.6,0.4,3,1.2,3.9s1.8,1.4,3.1,1.4
				c0.8,0,1.6-0.1,2.2-0.3s1.3-0.5,1.9-0.8l0.2,1.1C730.3,119.7,728.8,120.1,727.2,120.1z M723,112.4h7.3c0-1.4-0.3-2.5-0.9-3.3
				s-1.5-1.1-2.5-1.1c-1.1,0-2,0.4-2.6,1.2S723.1,111.1,723,112.4z"/>
		</g>
	</g>
	<g>
		<path class="st32" d="M1024,150h-6v1h6V150L1024,150z M1012,150h-6v1h6V150L1012,150z M1000,150h-6v1h6V150L1000,150z M988,150h-6
			v1h6V150L988,150z M976,150h-6v1h6V150L976,150z M964,150h-6v1h6V150L964,150z M952,150h-6v1h6V150L952,150z M940,150h-6v1h6V150
			L940,150z M928,150h-6v1h6V150L928,150z M916,150h-6v1h6V150L916,150z M904,150h-6v1h6V150L904,150z M892,150h-6v1h6V150L892,150z
			 M880,150h-6v1h6V150L880,150z M868,150h-6v1h6V150L868,150z M856,150h-6v1h6V150L856,150z M844,150h-6v1h6V150L844,150z M832,150
			h-6v1h6V150L832,150z M820,150h-6v1h6V150L820,150z M808,150h-6v1h6V150L808,150z M796,150h-6v1h6V150L796,150z M784,150h-6v1h6
			V150L784,150z M772,150h-6v1h6V150L772,150z M760,150h-6v1h6V150L760,150z M748,150h-6v1h6V150L748,150z M736,150h-6v1h6V150
			L736,150z M724,150h-6v1h6V150L724,150z M712,150h-6v1h6V150L712,150z M700,150h-6v1h6V150L700,150z M688,150h-6v1h6V150L688,150z
			 M676,150h-6v1h6V150L676,150z M664,150h-6v1h6V150L664,150z M652,150h-6v1h6V150L652,150z M640,150h-6v1h6V150L640,150z M628,150
			h-6v1h6V150L628,150z M616,150h-6v1h6V150L616,150z M604,150h-6v1h6V150L604,150z M592,150h-6v1h6V150L592,150z M580,150h-6v1h6
			V150L580,150z M568,150h-6v1h6V150L568,150z M556,150h-6v1h6V150L556,150z M544,150h-6v1h6V150L544,150z M532,150h-6v1h6V150
			L532,150z M520,150h-6v1h6V150L520,150z M508,150h-6v1h6V150L508,150z M496,150h-6v1h6V150L496,150z M484,150h-6v1h6V150L484,150z
			 M472,150h-6v1h6V150L472,150z M460,150h-6v1h6V150L460,150z M448,150h-6v1h6V150L448,150z M436,150h-6v1h6V150L436,150z M424,150
			h-6v1h6V150L424,150z M412,150h-6v1h6V150L412,150z M400,150h-6v1h6V150L400,150z M388,150h-6v1h6V150L388,150z M376,150h-6v1h6
			V150L376,150z M364,150h-6v1h6V150L364,150z M352,150h-6v1h6V150L352,150z M340,150h-6v1h6V150L340,150z M328,150h-6v1h6V150
			L328,150z M316,150h-6v1h6V150L316,150z M304,150h-6v1h6V150L304,150z M292,150h-6v1h6V150L292,150z M280,150h-6v1h6V150L280,150z
			 M268,150h-6v1h6V150L268,150z M256,150h-6v1h6V150L256,150z M244,150h-6v1h6V150L244,150z M232,150h-6v1h6V150L232,150z M220,150
			h-6v1h6V150L220,150z M208,150h-6v1h6V150L208,150z M196,150h-6v1h6V150L196,150z M184,150h-6v1h6V150L184,150z M177,154h-1v6h1
			V154L177,154z M177,166h-1v6h1V166L177,166z M177,178h-1v6h1V178L177,178z M177,190h-1v6h1V190L177,190z M177,202h-1v6h1V202
			L177,202z M177,214h-1v6h1V214L177,214z M177,226h-1v6h1V226L177,226z M177,238h-1v6h1V238L177,238z M177,250h-1v6h1V250L177,250z
			 M177,262h-1v6h1V262L177,262z M177,274h-1v6h1V274L177,274z M177,286h-1v6h1V286L177,286z M177,298h-1v6h1V298L177,298z M177,310
			h-1v6h1V310L177,310z M177,322h-1v6h1V322L177,322z M177,334h-1v6h1V334L177,334z M177,346h-1v6h1V346L177,346z M177,358h-1v6h1
			V358L177,358z M177,370h-1v6h1V370L177,370z M177,382h-1v6h1V382L177,382z M177,394h-1v6h1V394L177,394z M177,406h-1v6h1V406
			L177,406z M177,418h-1v6h1V418L177,418z M177,430h-1v6h1V430L177,430z M177,442h-1v6h1V442L177,442z M177,454h-1v6h1V454L177,454z
			 M177,466h-1v6h1V466L177,466z M177,478h-1v6h1V478L177,478z M177,490h-1v6h1V490L177,490z M177,502h-1v6h1V502L177,502z M177,514
			h-1v6h1V514L177,514z M177,526h-1v6h1V526L177,526z M177,538h-1v6h1V538L177,538z M177,550h-1v6h1V550L177,550z M177,562h-1v6h1
			V562L177,562z M177,574h-1v6h1V574L177,574z M177,586h-1v6h1V586L177,586z M177,598h-1v6h1V598L177,598z M177,610h-1v6h1V610
			L177,610z M177,622h-1v6h1V622L177,622z M177,634h-1v6h1V634L177,634z M177,646h-1v6h1V646L177,646z M177,658h-1v6h1V658L177,658z
			 M177,670h-1v6h1V670L177,670z M177,682h-1v6h1V682L177,682z M177,694h-1v6h1V694L177,694z M177,706h-1v6h1V706L177,706z M177,718
			h-1v6h1V718L177,718z M177,730h-1v6h1V730L177,730z M177,742h-1v6h1V742L177,742z M177,754h-1v6h1V754L177,754z M177,766h-1v6h1
			V766L177,766z M177,778h-1v6h1V778L177,778z M177,790h-1v6h1V790L177,790z M177,802h-1v6h1V802L177,802z M186,809h-6v1h6V809
			L186,809z M198,809h-6v1h6V809L198,809z M210,809h-6v1h6V809L210,809z M222,809h-6v1h6V809L222,809z M234,809h-6v1h6V809L234,809z
			 M246,809h-6v1h6V809L246,809z M258,809h-6v1h6V809L258,809z M270,809h-6v1h6V809L270,809z M282,809h-6v1h6V809L282,809z M294,809
			h-6v1h6V809L294,809z M306,809h-6v1h6V809L306,809z M318,809h-6v1h6V809L318,809z M330,809h-6v1h6V809L330,809z M342,809h-6v1h6
			V809L342,809z M354,809h-6v1h6V809L354,809z M366,809h-6v1h6V809L366,809z M378,809h-6v1h6V809L378,809z M390,809h-6v1h6V809
			L390,809z M402,809h-6v1h6V809L402,809z M414,809h-6v1h6V809L414,809z M426,809h-6v1h6V809L426,809z M438,809h-6v1h6V809L438,809z
			 M450,809h-6v1h6V809L450,809z M462,809h-6v1h6V809L462,809z M474,809h-6v1h6V809L474,809z M486,809h-6v1h6V809L486,809z M498,809
			h-6v1h6V809L498,809z M510,809h-6v1h6V809L510,809z M522,809h-6v1h6V809L522,809z M534,809h-6v1h6V809L534,809z M546,809h-6v1h6
			V809L546,809z M558,809h-6v1h6V809L558,809z M570,809h-6v1h6V809L570,809z M582,809h-6v1h6V809L582,809z M594,809h-6v1h6V809
			L594,809z M606,809h-6v1h6V809L606,809z M618,809h-6v1h6V809L618,809z M630,809h-6v1h6V809L630,809z M642,809h-6v1h6V809L642,809z
			 M654,809h-6v1h6V809L654,809z M666,809h-6v1h6V809L666,809z M678,809h-6v1h6V809L678,809z M690,809h-6v1h6V809L690,809z M702,809
			h-6v1h6V809L702,809z M714,809h-6v1h6V809L714,809z M726,809h-6v1h6V809L726,809z M738,809h-6v1h6V809L738,809z M750,809h-6v1h6
			V809L750,809z M762,809h-6v1h6V809L762,809z M774,809h-6v1h6V809L774,809z M786,809h-6v1h6V809L786,809z M798,809h-6v1h6V809
			L798,809z M810,809h-6v1h6V809L810,809z M822,809h-6v1h6V809L822,809z M834,809h-6v1h6V809L834,809z M846,809h-6v1h6V809L846,809z
			 M858,809h-6v1h6V809L858,809z M870,809h-6v1h6V809L870,809z M882,809h-6v1h6V809L882,809z M894,809h-6v1h6V809L894,809z M906,809
			h-6v1h6V809L906,809z M918,809h-6v1h6V809L918,809z M930,809h-6v1h6V809L930,809z M942,809h-6v1h6V809L942,809z M954,809h-6v1h6
			V809L954,809z M966,809h-6v1h6V809L966,809z M978,809h-6v1h6V809L978,809z M990,809h-6v1h6V809L990,809z M1002,809h-6v1h6V809
			L1002,809z M1014,809h-6v1h6V809L1014,809z M1026,809h-6v1h6V809L1026,809z M1036,808h-1v1h-3v1h4V808L1036,808z M1036,796h-1v6h1
			V796L1036,796z M1036,784h-1v6h1V784L1036,784z M1036,772h-1v6h1V772L1036,772z M1036,760h-1v6h1V760L1036,760z M1036,748h-1v6h1
			V748L1036,748z M1036,736h-1v6h1V736L1036,736z M1036,724h-1v6h1V724L1036,724z M1036,712h-1v6h1V712L1036,712z M1036,700h-1v6h1
			V700L1036,700z M1036,688h-1v6h1V688L1036,688z M1036,676h-1v6h1V676L1036,676z M1036,664h-1v6h1V664L1036,664z M1036,652h-1v6h1
			V652L1036,652z M1036,640h-1v6h1V640L1036,640z M1036,628h-1v6h1V628L1036,628z M1036,616h-1v6h1V616L1036,616z M1036,604h-1v6h1
			V604L1036,604z M1036,592h-1v6h1V592L1036,592z M1036,580h-1v6h1V580L1036,580z M1036,568h-1v6h1V568L1036,568z M1036,556h-1v6h1
			V556L1036,556z M1036,544h-1v6h1V544L1036,544z M1036,532h-1v6h1V532L1036,532z M1036,520h-1v6h1V520L1036,520z M1036,508h-1v6h1
			V508L1036,508z M1036,496h-1v6h1V496L1036,496z M1036,484h-1v6h1V484L1036,484z M1036,472h-1v6h1V472L1036,472z M1036,460h-1v6h1
			V460L1036,460z M1036,448h-1v6h1V448L1036,448z M1036,436h-1v6h1V436L1036,436z M1036,424h-1v6h1V424L1036,424z M1036,412h-1v6h1
			V412L1036,412z M1036,400h-1v6h1V400L1036,400z M1036,388h-1v6h1V388L1036,388z M1036,376h-1v6h1V376L1036,376z M1036,364h-1v6h1
			V364L1036,364z M1036,352h-1v6h1V352L1036,352z M1036,340h-1v6h1V340L1036,340z M1036,328h-1v6h1V328L1036,328z M1036,316h-1v6h1
			V316L1036,316z M1036,304h-1v6h1V304L1036,304z M1036,292h-1v6h1V292L1036,292z M1036,280h-1v6h1V280L1036,280z M1036,268h-1v6h1
			V268L1036,268z M1036,256h-1v6h1V256L1036,256z M1036,244h-1v6h1V244L1036,244z M1036,232h-1v6h1V232L1036,232z M1036,220h-1v6h1
			V220L1036,220z M1036,208h-1v6h1V208L1036,208z M1036,196h-1v6h1V196L1036,196z M1036,184h-1v6h1V184L1036,184z M1036,172h-1v6h1
			V172L1036,172z M1036,160h-1v6h1V160L1036,160z M1036,150h-6v1h5v3h1V150L1036,150z"/>
	</g>
	<rect x="544" y="150" class="st40" width="60" height="660"/>
	<rect x="480" y="150" class="st40" width="60" height="660"/>
	<rect x="608" y="150" class="st40" width="60" height="660"/>
	<rect x="672" y="150" class="st40" width="60" height="660"/>
	<rect x="800" y="150" class="st40" width="60" height="660"/>
	<rect x="736" y="150" class="st40" width="60" height="660"/>
	<rect x="864" y="150" class="st40" width="60" height="660"/>
	<rect x="928" y="150" class="st40" width="60" height="660"/>
	<rect x="288" y="150" class="st40" width="60" height="660"/>
	<rect x="224" y="150" class="st40" width="60" height="660"/>
	<rect x="352" y="150" class="st40" width="60" height="660"/>
	<rect x="416" y="150" class="st40" width="60" height="660"/>
	<g>
		<path class="st3" d="M598,511v118H230V511H598 M599,510H229v120h370V510L599,510z"/>
	</g>
	<g>
		<path class="st32" d="M411,641v118H225V641H411 M412,640H224v120h188V640L412,640z"/>
	</g>
	<g>
		<path class="st3" d="M365.1,574H362v-3.1h3.1V574z"/>
		<path class="st3" d="M380.2,573.3c-0.7,0.7-1.7,1-3.1,1c-0.8,0-1.6-0.2-2.3-0.5s-1.3-0.8-1.7-1.3c-0.9-1.1-1.4-2.5-1.4-4.2
			c0-1,0.2-2,0.6-2.9c0.4-0.9,1.1-1.6,1.9-2.2c0.8-0.6,1.9-0.8,3.1-0.8s2.2,0.3,2.9,1l-0.5,1.3c-0.8-0.5-1.7-0.8-2.7-0.8
			s-1.8,0.4-2.5,1.3c-0.7,0.8-1,1.9-1,3.2s0.3,2.4,1,3.2c0.7,0.8,1.5,1.2,2.5,1.2c1,0,1.9-0.3,2.7-0.8L380.2,573.3z"/>
		<path class="st3" d="M392.5,564.1c0.8,1.1,1.2,2.5,1.2,4.3s-0.4,3.2-1.3,4.3s-2.1,1.6-3.6,1.6c-0.8,0-1.5-0.2-2.2-0.5
			s-1.1-0.7-1.5-1.3c-0.8-1.1-1.2-2.5-1.2-4.2s0.4-3.2,1.3-4.2c0.9-1.1,2.1-1.6,3.7-1.6C390.5,562.4,391.6,563,392.5,564.1z
			 M388.8,572.8c1.3,0,2.2-0.6,2.7-1.9c0.3-0.7,0.4-1.4,0.4-2.1s0-1.3-0.1-1.7c-0.1-0.9-0.4-1.7-0.9-2.3c-0.5-0.6-1.2-0.9-2.1-0.9
			c-1.3,0-2.1,0.7-2.6,2c-0.2,0.7-0.4,1.5-0.4,2.2c0,1.4,0.2,2.5,0.6,3.4C386.9,572.4,387.6,572.8,388.8,572.8z"/>
		<path class="st3" d="M405.8,574h-1.5c-1.3,0-2.3-0.1-2.8-0.4c-0.3-0.2-0.6-0.3-0.8-0.5c-0.5-0.5-0.8-1.7-0.8-3.5v-10.2h-3.4V558
			h5.2v11.5c0,1.4,0.1,2.2,0.4,2.5c0.2,0.3,0.6,0.5,0.9,0.5c0.4,0,0.8,0.1,1.1,0.1h1.7L405.8,574z"/>
		<path class="st3" d="M417.9,565.5v1.6H411v-1.6H417.9z"/>
		<path class="st3" d="M430.1,568.8c0.4,0.5,0.7,1.3,0.7,2.3s-0.4,1.8-1.1,2.4c-0.7,0.6-1.7,0.9-2.8,0.9c-0.8,0-1.6-0.1-2.3-0.3
			c-0.8-0.2-1.3-0.4-1.7-0.7l0.5-1.3c0.3,0.2,0.7,0.4,1.4,0.5s1.3,0.3,2,0.3c0.7,0,1.3-0.2,1.7-0.5c0.4-0.3,0.7-0.7,0.7-1.2
			s-0.1-0.9-0.3-1.2c-0.2-0.3-0.6-0.5-1.2-0.7l-1.9-0.5c-1.1-0.3-1.8-0.7-2.2-1.2c-0.4-0.5-0.5-1.2-0.5-2s0.3-1.5,0.9-2.2
			c0.6-0.7,1.6-1,2.8-1h0.1c1.4,0,2.5,0.3,3.5,0.8l-0.4,1.3c-1-0.4-2-0.6-3-0.6c-0.6,0-1.2,0.2-1.6,0.5c-0.4,0.3-0.6,0.7-0.6,1.2
			s0.1,0.8,0.3,1.1c0.2,0.2,0.6,0.4,1.2,0.6l2,0.5C428.9,567.9,429.7,568.2,430.1,568.8z"/>
		<path class="st3" d="M439.8,564.2c0.5-1.2,1.2-1.7,2.4-1.7c1.4,0,2.2,1,2.4,3.1c0,0.4,0.1,0.8,0.1,1.3v7.2h-1.7v-7
			c0-1.3-0.1-2.2-0.3-2.5c-0.2-0.3-0.3-0.5-0.5-0.6c-0.1-0.1-0.3-0.1-0.5-0.1c-0.6,0-1,0.3-1.3,1c-0.2,0.4-0.2,1.2-0.2,2.2v7h-1.6
			v-6.9c0-1.5-0.2-2.5-0.5-2.9c-0.2-0.2-0.4-0.3-0.8-0.3c-0.3,0-0.6,0.2-0.9,0.5c-0.5,0.6-0.7,1.3-0.7,2.3v7.4h-1.7v-11.2h1.5
			l0.1,1.5c0.2-0.5,0.5-0.9,0.8-1.3s0.8-0.5,1.3-0.5c0.5,0,1,0.2,1.3,0.5C439.4,563.2,439.6,563.6,439.8,564.2z"/>
		<path class="st3" d="M455.7,565.5v1.6h-6.9v-1.6H455.7z"/>
		<path class="st3" d="M463,565.3c0.6-0.4,1.4-0.6,2.2-0.6c1.3,0,2.4,0.4,3.2,1.3c0.8,0.9,1.2,2,1.2,3.4c0,0.7-0.1,1.4-0.4,2.1
			c-0.3,0.6-0.6,1.1-1.1,1.5c-0.9,0.8-2.1,1.3-3.6,1.3s-2.6-0.5-3.5-1.4c-0.9-0.9-1.3-2.2-1.3-3.9s0.6-3.2,1.7-4.6l4.7-5.7h2.5
			L463,565.3z M461.7,569.5c0,0.9,0.3,1.7,0.8,2.3c0.5,0.6,1.2,0.9,2.1,0.9s1.6-0.3,2.1-0.9c0.5-0.6,0.8-1.4,0.8-2.3
			s-0.3-1.7-0.8-2.3c-0.5-0.6-1.2-0.9-2.1-0.9c-0.9,0-1.6,0.3-2.2,1C462,567.8,461.7,568.5,461.7,569.5z"/>
	</g>
	<g>
		<g>
			<path class="st2" d="M987,481v308H225V481H987 M988,480H224v310h764V480L988,480z"/>
		</g>
	</g>
	<g>
		<g>
			<path class="st2" d="M987,161v38H225v-38H987 M988,160H224v40h764V160L988,160z"/>
		</g>
	</g>
	<g>
		<g>
			<path class="st2" d="M550.8,184h-3.1v-3.1h3.1V184z"/>
			<path class="st2" d="M565.9,183.3c-0.7,0.7-1.7,1-3.1,1c-0.8,0-1.6-0.2-2.3-0.5c-0.7-0.3-1.3-0.8-1.7-1.3
				c-0.9-1.1-1.4-2.5-1.4-4.2c0-1,0.2-2,0.6-2.9c0.4-0.9,1.1-1.6,1.9-2.2s1.9-0.8,3.1-0.8s2.2,0.3,2.9,1l-0.5,1.3
				c-0.8-0.5-1.7-0.8-2.7-0.8s-1.8,0.4-2.5,1.3c-0.7,0.8-1,1.9-1,3.2s0.3,2.4,1,3.2c0.7,0.8,1.5,1.3,2.5,1.3c1,0,1.9-0.3,2.7-0.8
				L565.9,183.3z"/>
			<path class="st2" d="M578.2,174.1c0.8,1.1,1.2,2.5,1.2,4.3s-0.4,3.2-1.3,4.3s-2.1,1.6-3.6,1.6c-0.8,0-1.5-0.2-2.2-0.5
				s-1.1-0.7-1.5-1.3c-0.8-1.1-1.2-2.5-1.2-4.2s0.4-3.2,1.3-4.2c0.9-1.1,2.1-1.6,3.7-1.6C576.2,172.4,577.3,173,578.2,174.1z
				 M574.5,182.8c1.3,0,2.2-0.6,2.7-1.9c0.3-0.7,0.4-1.4,0.4-2.1s0-1.3-0.1-1.7c-0.1-0.9-0.4-1.7-0.9-2.3c-0.5-0.6-1.2-0.9-2.1-0.9
				c-1.3,0-2.1,0.7-2.6,2c-0.2,0.7-0.4,1.5-0.4,2.2c0,1.4,0.2,2.5,0.6,3.4C572.6,182.4,573.3,182.8,574.5,182.8z"/>
			<path class="st2" d="M588.1,172.4c2.3,0,3.5,1.5,3.5,4.4v7.2h-1.9v-6.9c0-0.8,0-1.4-0.1-1.7s-0.2-0.6-0.4-0.8
				c-0.3-0.5-0.9-0.7-1.7-0.7c-0.8,0-1.5,0.2-2,0.7c-0.6,0.5-0.8,1.1-0.8,1.8v7.6h-1.9v-11.2h1.7l0.1,1.2
				C585.4,172.9,586.5,172.4,588.1,172.4z"/>
			<path class="st2" d="M599.4,174.2v5.3c0,0.7,0,1.2,0.1,1.6c0.1,0.4,0.2,0.7,0.4,0.9c0.2,0.2,0.5,0.4,0.8,0.5s0.8,0.1,1.4,0.1h2.1
				l-0.1,1.4h-1.9c-1.9,0-3.2-0.4-3.9-1.1c-0.4-0.5-0.7-1.2-0.8-2.2c0-0.5-0.1-1-0.1-1.7v-4.8h-3.2l0.2-1.4h3v-3.9l1.9-0.6v4.4h4.7
				v1.4H599.4z"/>
			<path class="st2" d="M614.7,176.2c0-1.6-0.7-2.4-2-2.4c-0.6,0-1.4,0.1-2.1,0.2c-0.8,0.2-1.3,0.3-1.6,0.4l-0.4-1.4
				c1.4-0.5,2.7-0.7,4-0.7s2.2,0.3,3,0.9s1.1,1.4,1.1,2.6v8.1H615l-0.2-1.3c-0.4,0.4-1,0.8-1.7,1.1c-0.7,0.3-1.4,0.4-2,0.4
				c-1,0-1.7-0.3-2.4-0.9s-0.9-1.4-0.9-2.4s0.4-1.8,1.2-2.3c0.6-0.3,1.1-0.6,1.8-0.7c0.6-0.1,1.4-0.3,2.4-0.4l1.5-0.2V176.2z
				 M614.7,181.5v-2.9l-1.5,0.2c-1.1,0.2-1.8,0.3-2.2,0.5c-0.9,0.3-1.4,0.9-1.4,1.8c0,0.6,0.2,1,0.5,1.4s0.8,0.5,1.4,0.5
				C612.7,182.9,613.8,182.4,614.7,181.5z"/>
			<path class="st2" d="M621.2,174.2v-1.4h5.1v9.8h3.2v1.4h-8.7v-1.4h3.6v-8.4H621.2z M624.1,169.8v-1c0-0.2,0.1-0.5,0.4-0.7
				c0.3-0.2,0.6-0.3,0.8-0.3c0.3,0,0.5,0.1,0.8,0.3c0.3,0.2,0.4,0.4,0.4,0.7v1c0,0.2-0.1,0.5-0.4,0.7c-0.3,0.2-0.6,0.3-0.8,0.3
				c-0.3,0-0.5-0.1-0.8-0.3C624.3,170.3,624.1,170,624.1,169.8z"/>
			<path class="st2" d="M638.5,172.4c2.3,0,3.5,1.5,3.5,4.4v7.2h-1.9v-6.9c0-0.8,0-1.4-0.1-1.7s-0.2-0.6-0.4-0.8
				c-0.3-0.5-0.9-0.7-1.7-0.7c-0.8,0-1.5,0.2-2,0.7c-0.6,0.5-0.8,1.1-0.8,1.8v7.6h-1.9v-11.2h1.7l0.1,1.2
				C635.8,172.9,636.9,172.4,638.5,172.4z"/>
			<path class="st2" d="M648,183.5c-0.8-0.5-1.4-1.2-1.7-2.1c-0.4-0.9-0.6-1.9-0.6-3s0.2-2.1,0.5-3c0.4-0.9,0.9-1.6,1.6-2.1
				c0.7-0.5,1.5-0.8,2.3-0.8c1.6,0,2.7,0.5,3.5,1.6s1.1,2.4,1.1,4v0.6h-7.1c0,1.2,0.3,2.1,0.9,2.9c0.5,0.8,1.3,1.2,2.4,1.2
				c0.7-0.1,1.7-0.5,3-1.2l0.6,1.3c-0.9,0.9-2.1,1.3-3.6,1.3C649.7,184.3,648.8,184,648,183.5z M652.9,177.3
				c-0.1-2.3-0.9-3.5-2.4-3.5c-1.7,0-2.6,1.2-2.9,3.5H652.9z"/>
			<path class="st2" d="M662,184h-1.9v-11.2h1.5l0.2,2.1c0.5-0.8,1.1-1.4,1.8-1.8s1.6-0.6,2.5-0.6h0.9v1.7h-1.2
				c-1.2,0-2.1,0.3-2.8,0.9c-0.7,0.6-1,1.5-1,2.7V184z"/>
		</g>
	</g>
	<g>
		<g>
			<path class="st2" d="M550.8,347h-3.1v-3.1h3.1V347z"/>
			<path class="st2" d="M560,349.3c0.7,0,1.1-0.1,1.3-0.2s0.4-0.2,0.5-0.4c0.2-0.3,0.4-1.2,0.4-2.5v-9.1h-4v-1.4h5.9v9.9
				c0,1.8-0.1,2.9-0.4,3.5s-0.7,0.9-1.1,1.1c-0.7,0.3-1.5,0.4-2.5,0.4h-2.7v-1.4H560z M561.9,332.8v-1c0-0.2,0.1-0.5,0.4-0.7
				c0.3-0.2,0.6-0.3,0.8-0.3s0.5,0.1,0.8,0.3s0.4,0.4,0.4,0.7v1c0,0.2-0.1,0.5-0.4,0.7s-0.6,0.3-0.8,0.3s-0.5-0.1-0.8-0.3
				C562,333.3,561.9,333,561.9,332.8z"/>
			<path class="st2" d="M578.8,343.3c0,2.6-1.4,3.9-4.3,3.9s-4.3-1.3-4.3-3.9v-7.6h1.9v7.8c0,0.8,0.2,1.4,0.6,1.8s1,0.6,1.9,0.6
				s1.5-0.2,1.9-0.6s0.6-1,0.6-1.8v-7.8h1.9V343.3z"/>
			<path class="st2" d="M587.6,337.2c0.5-1.2,1.2-1.7,2.4-1.7c1.4,0,2.2,1,2.4,3.1c0,0.4,0.1,0.8,0.1,1.3v7.2h-1.7v-7
				c0-1.3-0.1-2.2-0.3-2.5c-0.2-0.3-0.3-0.5-0.5-0.6s-0.3-0.1-0.5-0.1c-0.6,0-1,0.3-1.3,1c-0.2,0.4-0.2,1.2-0.2,2.2v7h-1.6v-6.9
				c0-1.5-0.2-2.5-0.5-2.9c-0.2-0.2-0.4-0.3-0.8-0.3c-0.3,0-0.6,0.2-0.9,0.5c-0.5,0.6-0.7,1.3-0.7,2.3v7.4h-1.7v-11.2h1.5l0.1,1.5
				c0.2-0.5,0.5-0.9,0.8-1.3c0.3-0.4,0.8-0.5,1.3-0.5s1,0.2,1.3,0.5C587.2,336.2,587.5,336.6,587.6,337.2z"/>
			<path class="st2" d="M597,337.3c0.8-1.3,1.9-1.9,3.4-1.9c1.5,0,2.6,0.5,3.3,1.6s1.1,2.5,1.1,4.1c0,2.2-0.5,3.8-1.5,4.9
				c-0.7,0.8-1.7,1.2-3,1.2c-0.8,0-1.5-0.2-1.9-0.5c-0.4-0.3-0.9-0.8-1.3-1.3l0,1.5h-1.8v-15.8l1.9-0.2V337.3z M597.1,342.7
				c0.1,1,0.4,1.7,0.9,2.3c0.5,0.6,1.2,0.8,2.1,0.8c1.3,0,2.1-0.7,2.6-2c0.2-0.7,0.3-1.4,0.3-2.2c0-0.7,0-1.3-0.1-1.7
				c-0.1-1-0.4-1.7-0.8-2.3c-0.4-0.6-1.1-0.8-2-0.8c-1.5,0-2.5,0.7-2.8,2.2c-0.1,0.6-0.2,1.3-0.2,2C597,341.7,597,342.3,597.1,342.7
				z"/>
			<path class="st2" d="M616,337.1c0.8,1.1,1.2,2.5,1.2,4.3s-0.4,3.2-1.3,4.3c-0.9,1.1-2.1,1.6-3.6,1.6c-0.8,0-1.5-0.2-2.2-0.5
				s-1.1-0.7-1.5-1.3c-0.8-1.1-1.2-2.5-1.2-4.2s0.4-3.2,1.3-4.2c0.9-1.1,2.1-1.6,3.7-1.6S615.2,336,616,337.1z M612.3,345.8
				c1.3,0,2.2-0.6,2.7-1.9c0.3-0.7,0.4-1.4,0.4-2.1s0-1.3-0.1-1.7c-0.1-0.9-0.4-1.7-0.9-2.3s-1.2-0.9-2.1-0.9c-1.3,0-2.1,0.7-2.6,2
				c-0.2,0.7-0.4,1.5-0.4,2.2c0,1.4,0.2,2.5,0.6,3.4C610.4,345.4,611.2,345.8,612.3,345.8z"/>
			<path class="st2" d="M624.6,337.2v5.3c0,0.7,0,1.2,0.1,1.6s0.2,0.7,0.4,0.9c0.2,0.2,0.5,0.4,0.8,0.5s0.8,0.1,1.4,0.1h2.1
				l-0.1,1.4h-1.9c-1.9,0-3.2-0.4-3.9-1.1c-0.4-0.5-0.7-1.2-0.8-2.2c0-0.5-0.1-1-0.1-1.7v-4.8h-3.2l0.2-1.4h3v-3.9l1.9-0.6v4.4h4.7
				v1.4H624.6z"/>
			<path class="st2" d="M636.8,347h-1.9v-11.2h1.5l0.2,2.1c0.5-0.8,1.1-1.4,1.8-1.8c0.7-0.4,1.6-0.6,2.5-0.6h0.9v1.7h-1.2
				c-1.2,0-2.1,0.3-2.8,0.9c-0.7,0.6-1,1.5-1,2.7V347z"/>
			<path class="st2" d="M653.8,337.1c0.8,1.1,1.2,2.5,1.2,4.3s-0.4,3.2-1.3,4.3c-0.9,1.1-2.1,1.6-3.6,1.6c-0.8,0-1.5-0.2-2.2-0.5
				s-1.1-0.7-1.5-1.3c-0.8-1.1-1.2-2.5-1.2-4.2s0.4-3.2,1.3-4.2c0.9-1.1,2.1-1.6,3.7-1.6S653,336,653.8,337.1z M650.1,345.8
				c1.3,0,2.2-0.6,2.7-1.9c0.3-0.7,0.4-1.4,0.4-2.1s0-1.3-0.1-1.7c-0.1-0.9-0.4-1.7-0.9-2.3s-1.2-0.9-2.1-0.9c-1.3,0-2.1,0.7-2.6,2
				c-0.2,0.7-0.4,1.5-0.4,2.2c0,1.4,0.2,2.5,0.6,3.4C648.2,345.4,649,345.8,650.1,345.8z"/>
			<path class="st2" d="M663.7,335.4c2.3,0,3.5,1.5,3.5,4.4v7.2h-1.9v-6.9c0-0.8,0-1.4-0.1-1.7s-0.2-0.6-0.4-0.8
				c-0.3-0.5-0.9-0.7-1.7-0.7c-0.8,0-1.5,0.2-2,0.7c-0.6,0.5-0.8,1.1-0.8,1.8v7.6h-1.9v-11.2h1.7l0.1,1.2
				C661,335.9,662.1,335.4,663.7,335.4z"/>
		</g>
	</g>
	<g>
		<path class="st2" d="M550.8,500h-3.1v-3.1h3.1V500z"/>
		<path class="st2" d="M565.9,499.3c-0.7,0.7-1.7,1-3.1,1c-0.8,0-1.6-0.2-2.3-0.5s-1.3-0.8-1.7-1.3c-0.9-1.1-1.4-2.5-1.4-4.2
			c0-1,0.2-2,0.6-2.9s1.1-1.6,1.9-2.2c0.8-0.6,1.9-0.8,3.1-0.8c1.2,0,2.2,0.3,2.9,1l-0.5,1.3c-0.8-0.5-1.7-0.8-2.7-0.8
			c-1,0-1.8,0.4-2.5,1.3c-0.7,0.8-1,1.9-1,3.2s0.3,2.4,1,3.2c0.7,0.8,1.5,1.2,2.5,1.2c1,0,1.9-0.3,2.7-0.8L565.9,499.3z"/>
		<path class="st2" d="M578.2,490.1c0.8,1.1,1.2,2.5,1.2,4.3s-0.4,3.2-1.3,4.3c-0.9,1.1-2.1,1.6-3.6,1.6c-0.8,0-1.5-0.2-2.2-0.5
			s-1.1-0.7-1.5-1.3c-0.8-1.1-1.2-2.5-1.2-4.2s0.4-3.2,1.3-4.2c0.9-1.1,2.1-1.6,3.7-1.6C576.2,488.4,577.3,489,578.2,490.1z
			 M574.5,498.8c1.3,0,2.2-0.6,2.7-1.9c0.3-0.7,0.4-1.4,0.4-2.1s0-1.3-0.1-1.7c-0.1-0.9-0.4-1.7-0.9-2.3c-0.5-0.6-1.2-0.9-2.1-0.9
			c-1.3,0-2.1,0.7-2.6,2c-0.2,0.7-0.4,1.5-0.4,2.2c0,1.4,0.2,2.5,0.6,3.4C572.6,498.4,573.3,498.8,574.5,498.8z"/>
		<path class="st2" d="M588.1,488.4c2.3,0,3.5,1.5,3.5,4.4v7.2h-1.9v-6.9c0-0.8,0-1.4-0.1-1.7s-0.2-0.6-0.4-0.8
			c-0.3-0.5-0.9-0.7-1.7-0.7c-0.8,0-1.5,0.2-2,0.7c-0.6,0.5-0.8,1.1-0.8,1.8v7.6h-1.9v-11.2h1.7l0.1,1.2
			C585.4,488.9,586.5,488.4,588.1,488.4z"/>
		<path class="st2" d="M599.4,490.2v5.3c0,0.7,0,1.2,0.1,1.6c0.1,0.4,0.2,0.7,0.4,0.9c0.2,0.2,0.5,0.4,0.8,0.5s0.8,0.1,1.4,0.1h2.1
			l-0.1,1.4h-1.9c-1.9,0-3.2-0.4-3.9-1.1c-0.4-0.5-0.7-1.2-0.8-2.2c0-0.5-0.1-1-0.1-1.7v-4.8h-3.2l0.2-1.4h3v-3.9l1.9-0.6v4.4h4.7
			v1.4H599.4z"/>
		<path class="st2" d="M614.7,492.2c0-1.6-0.7-2.4-2-2.4c-0.6,0-1.4,0.1-2.1,0.2s-1.3,0.3-1.6,0.4l-0.4-1.4c1.4-0.5,2.7-0.7,4-0.7
			s2.2,0.3,3,0.9c0.8,0.6,1.1,1.4,1.1,2.6v8.1H615l-0.2-1.3c-0.4,0.4-1,0.8-1.7,1.1c-0.7,0.3-1.4,0.4-2,0.4c-1,0-1.7-0.3-2.4-0.9
			s-0.9-1.4-0.9-2.4s0.4-1.8,1.2-2.3c0.6-0.3,1.1-0.6,1.8-0.7c0.6-0.1,1.4-0.3,2.4-0.4l1.5-0.2V492.2z M614.7,497.5v-2.9l-1.5,0.2
			c-1.1,0.2-1.8,0.3-2.2,0.5c-0.9,0.3-1.4,0.9-1.4,1.8c0,0.6,0.2,1,0.5,1.4c0.3,0.3,0.8,0.5,1.4,0.5
			C612.7,498.9,613.8,498.4,614.7,497.5z"/>
		<path class="st2" d="M621.2,490.2v-1.4h5.1v9.8h3.2v1.4h-8.7v-1.4h3.6v-8.4H621.2z M624.1,485.8v-1c0-0.2,0.1-0.5,0.4-0.7
			c0.3-0.2,0.6-0.3,0.8-0.3s0.5,0.1,0.8,0.3c0.3,0.2,0.4,0.4,0.4,0.7v1c0,0.2-0.1,0.5-0.4,0.7c-0.3,0.2-0.6,0.3-0.8,0.3
			s-0.5-0.1-0.8-0.3C624.3,486.3,624.1,486,624.1,485.8z"/>
		<path class="st2" d="M638.5,488.4c2.3,0,3.5,1.5,3.5,4.4v7.2h-1.9v-6.9c0-0.8,0-1.4-0.1-1.7s-0.2-0.6-0.4-0.8
			c-0.3-0.5-0.9-0.7-1.7-0.7c-0.8,0-1.5,0.2-2,0.7c-0.6,0.5-0.8,1.1-0.8,1.8v7.6h-1.9v-11.2h1.7l0.1,1.2
			C635.8,488.9,636.9,488.4,638.5,488.4z"/>
		<path class="st2" d="M648,499.5c-0.8-0.5-1.4-1.2-1.7-2.1c-0.4-0.9-0.6-1.9-0.6-3s0.2-2.1,0.5-3s0.9-1.6,1.6-2.1
			c0.7-0.5,1.5-0.8,2.3-0.8c1.6,0,2.7,0.5,3.5,1.6s1.1,2.4,1.1,4v0.6h-7.1c0,1.2,0.3,2.1,0.9,2.9s1.3,1.2,2.4,1.2
			c0.7-0.1,1.7-0.5,3-1.2l0.6,1.3c-0.9,0.9-2.1,1.3-3.6,1.3C649.7,500.3,648.8,500,648,499.5z M652.9,493.3
			c-0.1-2.3-0.9-3.5-2.4-3.5c-1.7,0-2.6,1.2-2.9,3.5H652.9z"/>
		<path class="st2" d="M662,500h-1.9v-11.2h1.5l0.2,2.1c0.5-0.8,1.1-1.4,1.8-1.8c0.7-0.4,1.6-0.6,2.5-0.6h0.9v1.7h-1.2
			c-1.2,0-2.1,0.3-2.8,0.9c-0.7,0.6-1,1.5-1,2.7V500z"/>
	</g>
	<g>
		<path class="st3" d="M406,641v118H230V641H406 M407,640H229v120h178V640L407,640z"/>
	</g>
	<g>
		<path class="st3" d="M269.1,704H266v-3.1h3.1V704z"/>
		<path class="st3" d="M284.2,703.3c-0.7,0.7-1.7,1-3.1,1c-0.8,0-1.6-0.2-2.3-0.5s-1.3-0.8-1.7-1.3c-0.9-1.1-1.4-2.5-1.4-4.2
			c0-1,0.2-2,0.6-2.9c0.4-0.9,1.1-1.6,1.9-2.2c0.8-0.6,1.9-0.8,3.1-0.8s2.2,0.3,2.9,1l-0.5,1.3c-0.8-0.5-1.7-0.8-2.7-0.8
			s-1.8,0.4-2.5,1.3c-0.7,0.8-1,1.9-1,3.2s0.3,2.4,1,3.2c0.7,0.8,1.5,1.2,2.5,1.2c1,0,1.9-0.3,2.7-0.8L284.2,703.3z"/>
		<path class="st3" d="M296.5,694.1c0.8,1.1,1.2,2.5,1.2,4.3s-0.4,3.2-1.3,4.3s-2.1,1.6-3.6,1.6c-0.8,0-1.5-0.2-2.2-0.5
			s-1.1-0.7-1.5-1.3c-0.8-1.1-1.2-2.5-1.2-4.2s0.4-3.2,1.3-4.2c0.9-1.1,2.1-1.6,3.7-1.6C294.5,692.4,295.6,693,296.5,694.1z
			 M292.8,702.8c1.3,0,2.2-0.6,2.7-1.9c0.3-0.7,0.4-1.4,0.4-2.1s0-1.3-0.1-1.7c-0.1-0.9-0.4-1.7-0.9-2.3c-0.5-0.6-1.2-0.9-2.1-0.9
			c-1.3,0-2.1,0.7-2.6,2c-0.2,0.7-0.4,1.5-0.4,2.2c0,1.4,0.2,2.5,0.6,3.4C290.9,702.4,291.6,702.8,292.8,702.8z"/>
		<path class="st3" d="M309.8,704h-1.5c-1.3,0-2.3-0.1-2.8-0.4c-0.3-0.2-0.6-0.3-0.8-0.5c-0.5-0.5-0.8-1.7-0.8-3.5v-10.2h-3.4V688
			h5.2v11.5c0,1.4,0.1,2.2,0.4,2.5c0.2,0.3,0.6,0.5,0.9,0.5c0.4,0,0.8,0.1,1.1,0.1h1.7L309.8,704z"/>
		<path class="st3" d="M321.9,695.5v1.6H315v-1.6H321.9z"/>
		<path class="st3" d="M334.1,698.8c0.4,0.5,0.7,1.3,0.7,2.3s-0.4,1.8-1.1,2.4c-0.7,0.6-1.7,0.9-2.8,0.9c-0.8,0-1.6-0.1-2.3-0.3
			c-0.8-0.2-1.3-0.4-1.7-0.7l0.5-1.3c0.3,0.2,0.7,0.4,1.4,0.5s1.3,0.3,2,0.3c0.7,0,1.3-0.2,1.7-0.5c0.4-0.3,0.7-0.7,0.7-1.2
			s-0.1-0.9-0.3-1.2c-0.2-0.3-0.6-0.5-1.2-0.7l-1.9-0.5c-1.1-0.3-1.8-0.7-2.2-1.2c-0.4-0.5-0.5-1.2-0.5-2s0.3-1.5,0.9-2.2
			c0.6-0.7,1.6-1,2.8-1h0.1c1.4,0,2.5,0.3,3.5,0.8l-0.4,1.3c-1-0.4-2-0.6-3-0.6c-0.6,0-1.2,0.2-1.6,0.5c-0.4,0.3-0.6,0.7-0.6,1.2
			s0.1,0.8,0.3,1.1c0.2,0.2,0.6,0.4,1.2,0.6l2,0.5C332.9,697.9,333.7,698.2,334.1,698.8z"/>
		<path class="st3" d="M343.8,694.2c0.5-1.2,1.2-1.7,2.4-1.7c1.4,0,2.2,1,2.4,3.1c0,0.4,0.1,0.8,0.1,1.3v7.2h-1.7v-7
			c0-1.3-0.1-2.2-0.3-2.5c-0.2-0.3-0.3-0.5-0.5-0.6c-0.1-0.1-0.3-0.1-0.5-0.1c-0.6,0-1,0.3-1.3,1c-0.2,0.4-0.2,1.2-0.2,2.2v7h-1.6
			v-6.9c0-1.5-0.2-2.5-0.5-2.9c-0.2-0.2-0.4-0.3-0.8-0.3c-0.3,0-0.6,0.2-0.9,0.5c-0.5,0.6-0.7,1.3-0.7,2.3v7.4h-1.7v-11.2h1.5
			l0.1,1.5c0.2-0.5,0.5-0.9,0.8-1.3s0.8-0.5,1.3-0.5c0.5,0,1,0.2,1.3,0.5C343.4,693.2,343.6,693.6,343.8,694.2z"/>
		<path class="st3" d="M359.7,695.5v1.6h-6.9v-1.6H359.7z"/>
		<path class="st3" d="M366,702c0.7,0.2,1.4,0.4,2.3,0.4s1.6-0.2,2.1-0.7c0.6-0.5,0.9-1.2,0.9-2.1c0-1.4-0.9-2.3-2.6-2.7
			c-0.5-0.1-1-0.1-1.6-0.1h-1.1v-1.8l1.1,0c1.8,0,3-0.4,3.4-1.3c0.2-0.3,0.3-0.7,0.3-1.2c0-0.7-0.2-1.3-0.7-1.7
			c-0.5-0.4-1.2-0.6-2.1-0.6c-1.3,0-2.5,0.4-3.5,1.3l-0.7-1.7c1.1-0.9,2.6-1.4,4.4-1.4c1.4,0,2.6,0.3,3.5,1c0.9,0.7,1.3,1.6,1.3,2.7
			s-0.3,1.9-1,2.5c-0.7,0.5-1.4,0.9-2.4,1.1c1,0.2,1.9,0.6,2.7,1.3c0.8,0.6,1.2,1.6,1.2,2.7c0,1.7-0.8,3-2.3,3.7
			c-0.9,0.4-2,0.6-3.3,0.6c-1.6,0-3-0.4-4.2-1.3l0.7-1.6C364.8,701.5,365.3,701.8,366,702z"/>
	</g>
	<g>
		<path class="st3" d="M982,511v118H614V511H982 M983,510H613v120h370V510L983,510z"/>
	</g>
	<g>
		<path class="st3" d="M749.1,574H746v-3.1h3.1V574z"/>
		<path class="st3" d="M764.2,573.3c-0.7,0.7-1.7,1-3.1,1c-0.8,0-1.6-0.2-2.3-0.5s-1.3-0.8-1.7-1.3c-0.9-1.1-1.4-2.5-1.4-4.2
			c0-1,0.2-2,0.6-2.9c0.4-0.9,1.1-1.6,1.9-2.2c0.8-0.6,1.9-0.8,3.1-0.8s2.2,0.3,2.9,1l-0.5,1.3c-0.8-0.5-1.7-0.8-2.7-0.8
			s-1.8,0.4-2.5,1.3c-0.7,0.8-1,1.9-1,3.2s0.3,2.4,1,3.2c0.7,0.8,1.5,1.2,2.5,1.2c1,0,1.9-0.3,2.7-0.8L764.2,573.3z"/>
		<path class="st3" d="M776.5,564.1c0.8,1.1,1.2,2.5,1.2,4.3s-0.4,3.2-1.3,4.3s-2.1,1.6-3.6,1.6c-0.8,0-1.5-0.2-2.2-0.5
			s-1.1-0.7-1.5-1.3c-0.8-1.1-1.2-2.5-1.2-4.2s0.4-3.2,1.3-4.2c0.9-1.1,2.1-1.6,3.7-1.6C774.5,562.4,775.6,563,776.5,564.1z
			 M772.8,572.8c1.3,0,2.2-0.6,2.7-1.9c0.3-0.7,0.4-1.4,0.4-2.1s0-1.3-0.1-1.7c-0.1-0.9-0.4-1.7-0.9-2.3c-0.5-0.6-1.2-0.9-2.1-0.9
			c-1.3,0-2.1,0.7-2.6,2c-0.2,0.7-0.4,1.5-0.4,2.2c0,1.4,0.2,2.5,0.6,3.4C770.9,572.4,771.6,572.8,772.8,572.8z"/>
		<path class="st3" d="M789.8,574h-1.5c-1.3,0-2.3-0.1-2.8-0.4c-0.3-0.2-0.6-0.3-0.8-0.5c-0.5-0.5-0.8-1.7-0.8-3.5v-10.2h-3.4V558
			h5.2v11.5c0,1.4,0.1,2.2,0.4,2.5c0.2,0.3,0.6,0.5,0.9,0.5c0.4,0,0.8,0.1,1.1,0.1h1.7L789.8,574z"/>
		<path class="st3" d="M801.9,565.5v1.6H795v-1.6H801.9z"/>
		<path class="st3" d="M814.1,568.8c0.4,0.5,0.7,1.3,0.7,2.3s-0.4,1.8-1.1,2.4c-0.7,0.6-1.7,0.9-2.8,0.9c-0.8,0-1.6-0.1-2.3-0.3
			c-0.8-0.2-1.3-0.4-1.7-0.7l0.5-1.3c0.3,0.2,0.7,0.4,1.4,0.5s1.3,0.3,2,0.3c0.7,0,1.3-0.2,1.7-0.5c0.4-0.3,0.7-0.7,0.7-1.2
			s-0.1-0.9-0.3-1.2c-0.2-0.3-0.6-0.5-1.2-0.7l-1.9-0.5c-1.1-0.3-1.8-0.7-2.2-1.2c-0.4-0.5-0.5-1.2-0.5-2s0.3-1.5,0.9-2.2
			c0.6-0.7,1.6-1,2.8-1h0.1c1.4,0,2.5,0.3,3.5,0.8l-0.4,1.3c-1-0.4-2-0.6-3-0.6c-0.6,0-1.2,0.2-1.6,0.5c-0.4,0.3-0.6,0.7-0.6,1.2
			s0.1,0.8,0.3,1.1c0.2,0.2,0.6,0.4,1.2,0.6l2,0.5C812.9,567.9,813.7,568.2,814.1,568.8z"/>
		<path class="st3" d="M823.8,564.2c0.5-1.2,1.2-1.7,2.4-1.7c1.4,0,2.2,1,2.4,3.1c0,0.4,0.1,0.8,0.1,1.3v7.2h-1.7v-7
			c0-1.3-0.1-2.2-0.3-2.5c-0.2-0.3-0.3-0.5-0.5-0.6c-0.1-0.1-0.3-0.1-0.5-0.1c-0.6,0-1,0.3-1.3,1c-0.2,0.4-0.2,1.2-0.2,2.2v7h-1.6
			v-6.9c0-1.5-0.2-2.5-0.5-2.9c-0.2-0.2-0.4-0.3-0.8-0.3c-0.3,0-0.6,0.2-0.9,0.5c-0.5,0.6-0.7,1.3-0.7,2.3v7.4h-1.7v-11.2h1.5
			l0.1,1.5c0.2-0.5,0.5-0.9,0.8-1.3s0.8-0.5,1.3-0.5c0.5,0,1,0.2,1.3,0.5C823.4,563.2,823.6,563.6,823.8,564.2z"/>
		<path class="st3" d="M839.7,565.5v1.6h-6.9v-1.6H839.7z"/>
		<path class="st3" d="M847,565.3c0.6-0.4,1.4-0.6,2.2-0.6c1.3,0,2.4,0.4,3.2,1.3c0.8,0.9,1.2,2,1.2,3.4c0,0.7-0.1,1.4-0.4,2.1
			c-0.3,0.6-0.6,1.1-1.1,1.5c-0.9,0.8-2.1,1.3-3.6,1.3s-2.6-0.5-3.5-1.4c-0.9-0.9-1.3-2.2-1.3-3.9s0.6-3.2,1.7-4.6l4.7-5.7h2.5
			L847,565.3z M845.7,569.5c0,0.9,0.3,1.7,0.8,2.3c0.5,0.6,1.2,0.9,2.1,0.9s1.6-0.3,2.1-0.9c0.5-0.6,0.8-1.4,0.8-2.3
			s-0.3-1.7-0.8-2.3c-0.5-0.6-1.2-0.9-2.1-0.9c-0.9,0-1.6,0.3-2.2,1C846,567.8,845.7,568.5,845.7,569.5z"/>
	</g>
	<g>
		<path class="st3" d="M598,641v118H422V641H598 M599,640H421v120h178V640L599,640z"/>
	</g>
	<g>
		<path class="st3" d="M461.1,704H458v-3.1h3.1V704z"/>
		<path class="st3" d="M476.2,703.3c-0.7,0.7-1.7,1-3.1,1c-0.8,0-1.6-0.2-2.3-0.5s-1.3-0.8-1.7-1.3c-0.9-1.1-1.4-2.5-1.4-4.2
			c0-1,0.2-2,0.6-2.9c0.4-0.9,1.1-1.6,1.9-2.2c0.8-0.6,1.9-0.8,3.1-0.8s2.2,0.3,2.9,1l-0.5,1.3c-0.8-0.5-1.7-0.8-2.7-0.8
			s-1.8,0.4-2.5,1.3c-0.7,0.8-1,1.9-1,3.2s0.3,2.4,1,3.2c0.7,0.8,1.5,1.2,2.5,1.2c1,0,1.9-0.3,2.7-0.8L476.2,703.3z"/>
		<path class="st3" d="M488.5,694.1c0.8,1.1,1.2,2.5,1.2,4.3s-0.4,3.2-1.3,4.3s-2.1,1.6-3.6,1.6c-0.8,0-1.5-0.2-2.2-0.5
			s-1.1-0.7-1.5-1.3c-0.8-1.1-1.2-2.5-1.2-4.2s0.4-3.2,1.3-4.2c0.9-1.1,2.1-1.6,3.7-1.6C486.5,692.4,487.6,693,488.5,694.1z
			 M484.8,702.8c1.3,0,2.2-0.6,2.7-1.9c0.3-0.7,0.4-1.4,0.4-2.1s0-1.3-0.1-1.7c-0.1-0.9-0.4-1.7-0.9-2.3c-0.5-0.6-1.2-0.9-2.1-0.9
			c-1.3,0-2.1,0.7-2.6,2c-0.2,0.7-0.4,1.5-0.4,2.2c0,1.4,0.2,2.5,0.6,3.4C482.9,702.4,483.6,702.8,484.8,702.8z"/>
		<path class="st3" d="M501.8,704h-1.5c-1.3,0-2.3-0.1-2.8-0.4c-0.3-0.2-0.6-0.3-0.8-0.5c-0.5-0.5-0.8-1.7-0.8-3.5v-10.2h-3.4V688
			h5.2v11.5c0,1.4,0.1,2.2,0.4,2.5c0.2,0.3,0.6,0.5,0.9,0.5c0.4,0,0.8,0.1,1.1,0.1h1.7L501.8,704z"/>
		<path class="st3" d="M513.9,695.5v1.6H507v-1.6H513.9z"/>
		<path class="st3" d="M526.1,698.8c0.4,0.5,0.7,1.3,0.7,2.3s-0.4,1.8-1.1,2.4c-0.7,0.6-1.7,0.9-2.8,0.9c-0.8,0-1.6-0.1-2.3-0.3
			c-0.8-0.2-1.3-0.4-1.7-0.7l0.5-1.3c0.3,0.2,0.7,0.4,1.4,0.5s1.3,0.3,2,0.3c0.7,0,1.3-0.2,1.7-0.5c0.4-0.3,0.7-0.7,0.7-1.2
			s-0.1-0.9-0.3-1.2c-0.2-0.3-0.6-0.5-1.2-0.7l-1.9-0.5c-1.1-0.3-1.8-0.7-2.2-1.2c-0.4-0.5-0.5-1.2-0.5-2s0.3-1.5,0.9-2.2
			c0.6-0.7,1.6-1,2.8-1h0.1c1.4,0,2.5,0.3,3.5,0.8l-0.4,1.3c-1-0.4-2-0.6-3-0.6c-0.6,0-1.2,0.2-1.6,0.5c-0.4,0.3-0.6,0.7-0.6,1.2
			s0.1,0.8,0.3,1.1c0.2,0.2,0.6,0.4,1.2,0.6l2,0.5C524.9,697.9,525.7,698.2,526.1,698.8z"/>
		<path class="st3" d="M535.8,694.2c0.5-1.2,1.2-1.7,2.4-1.7c1.4,0,2.2,1,2.4,3.1c0,0.4,0.1,0.8,0.1,1.3v7.2h-1.7v-7
			c0-1.3-0.1-2.2-0.3-2.5c-0.2-0.3-0.3-0.5-0.5-0.6c-0.1-0.1-0.3-0.1-0.5-0.1c-0.6,0-1,0.3-1.3,1c-0.2,0.4-0.2,1.2-0.2,2.2v7h-1.6
			v-6.9c0-1.5-0.2-2.5-0.5-2.9c-0.2-0.2-0.4-0.3-0.8-0.3c-0.3,0-0.6,0.2-0.9,0.5c-0.5,0.6-0.7,1.3-0.7,2.3v7.4h-1.7v-11.2h1.5
			l0.1,1.5c0.2-0.5,0.5-0.9,0.8-1.3s0.8-0.5,1.3-0.5c0.5,0,1,0.2,1.3,0.5C535.4,693.2,535.6,693.6,535.8,694.2z"/>
		<path class="st3" d="M551.7,695.5v1.6h-6.9v-1.6H551.7z"/>
		<path class="st3" d="M558,702c0.7,0.2,1.4,0.4,2.3,0.4s1.6-0.2,2.1-0.7c0.6-0.5,0.9-1.2,0.9-2.1c0-1.4-0.9-2.3-2.6-2.7
			c-0.5-0.1-1-0.1-1.6-0.1h-1.1v-1.8l1.1,0c1.8,0,3-0.4,3.4-1.3c0.2-0.3,0.3-0.7,0.3-1.2c0-0.7-0.2-1.3-0.7-1.7
			c-0.5-0.4-1.2-0.6-2.1-0.6c-1.3,0-2.5,0.4-3.5,1.3l-0.7-1.7c1.1-0.9,2.6-1.4,4.4-1.4c1.4,0,2.6,0.3,3.5,1c0.9,0.7,1.3,1.6,1.3,2.7
			s-0.3,1.9-1,2.5c-0.7,0.5-1.4,0.9-2.4,1.1c1,0.2,1.9,0.6,2.7,1.3c0.8,0.6,1.2,1.6,1.2,2.7c0,1.7-0.8,3-2.3,3.7
			c-0.9,0.4-2,0.6-3.3,0.6c-1.6,0-3-0.4-4.2-1.3l0.7-1.6C556.8,701.5,557.3,701.8,558,702z"/>
	</g>
	<g>
		<path class="st3" d="M790,641v118H614V641H790 M791,640H613v120h178V640L791,640z"/>
	</g>
	<g>
		<path class="st3" d="M653.1,704H650v-3.1h3.1V704z"/>
		<path class="st3" d="M668.2,703.3c-0.7,0.7-1.7,1-3.1,1c-0.8,0-1.6-0.2-2.3-0.5s-1.3-0.8-1.7-1.3c-0.9-1.1-1.4-2.5-1.4-4.2
			c0-1,0.2-2,0.6-2.9c0.4-0.9,1.1-1.6,1.9-2.2c0.8-0.6,1.9-0.8,3.1-0.8s2.2,0.3,2.9,1l-0.5,1.3c-0.8-0.5-1.7-0.8-2.7-0.8
			s-1.8,0.4-2.5,1.3c-0.7,0.8-1,1.9-1,3.2s0.3,2.4,1,3.2c0.7,0.8,1.5,1.2,2.5,1.2c1,0,1.9-0.3,2.7-0.8L668.2,703.3z"/>
		<path class="st3" d="M680.5,694.1c0.8,1.1,1.2,2.5,1.2,4.3s-0.4,3.2-1.3,4.3s-2.1,1.6-3.6,1.6c-0.8,0-1.5-0.2-2.2-0.5
			s-1.1-0.7-1.5-1.3c-0.8-1.1-1.2-2.5-1.2-4.2s0.4-3.2,1.3-4.2c0.9-1.1,2.1-1.6,3.7-1.6C678.5,692.4,679.6,693,680.5,694.1z
			 M676.8,702.8c1.3,0,2.2-0.6,2.7-1.9c0.3-0.7,0.4-1.4,0.4-2.1s0-1.3-0.1-1.7c-0.1-0.9-0.4-1.7-0.9-2.3c-0.5-0.6-1.2-0.9-2.1-0.9
			c-1.3,0-2.1,0.7-2.6,2c-0.2,0.7-0.4,1.5-0.4,2.2c0,1.4,0.2,2.5,0.6,3.4C674.9,702.4,675.6,702.8,676.8,702.8z"/>
		<path class="st3" d="M693.8,704h-1.5c-1.3,0-2.3-0.1-2.8-0.4c-0.3-0.2-0.6-0.3-0.8-0.5c-0.5-0.5-0.8-1.7-0.8-3.5v-10.2h-3.4V688
			h5.2v11.5c0,1.4,0.1,2.2,0.4,2.5c0.2,0.3,0.6,0.5,0.9,0.5c0.4,0,0.8,0.1,1.1,0.1h1.7L693.8,704z"/>
		<path class="st3" d="M705.9,695.5v1.6H699v-1.6H705.9z"/>
		<path class="st3" d="M718.1,698.8c0.4,0.5,0.7,1.3,0.7,2.3s-0.4,1.8-1.1,2.4c-0.7,0.6-1.7,0.9-2.8,0.9c-0.8,0-1.6-0.1-2.3-0.3
			c-0.8-0.2-1.3-0.4-1.7-0.7l0.5-1.3c0.3,0.2,0.7,0.4,1.4,0.5s1.3,0.3,2,0.3c0.7,0,1.3-0.2,1.7-0.5c0.4-0.3,0.7-0.7,0.7-1.2
			s-0.1-0.9-0.3-1.2c-0.2-0.3-0.6-0.5-1.2-0.7l-1.9-0.5c-1.1-0.3-1.8-0.7-2.2-1.2c-0.4-0.5-0.5-1.2-0.5-2s0.3-1.5,0.9-2.2
			c0.6-0.7,1.6-1,2.8-1h0.1c1.4,0,2.5,0.3,3.5,0.8l-0.4,1.3c-1-0.4-2-0.6-3-0.6c-0.6,0-1.2,0.2-1.6,0.5c-0.4,0.3-0.6,0.7-0.6,1.2
			s0.1,0.8,0.3,1.1c0.2,0.2,0.6,0.4,1.2,0.6l2,0.5C716.9,697.9,717.7,698.2,718.1,698.8z"/>
		<path class="st3" d="M727.8,694.2c0.5-1.2,1.2-1.7,2.4-1.7c1.4,0,2.2,1,2.4,3.1c0,0.4,0.1,0.8,0.1,1.3v7.2h-1.7v-7
			c0-1.3-0.1-2.2-0.3-2.5c-0.2-0.3-0.3-0.5-0.5-0.6c-0.1-0.1-0.3-0.1-0.5-0.1c-0.6,0-1,0.3-1.3,1c-0.2,0.4-0.2,1.2-0.2,2.2v7h-1.6
			v-6.9c0-1.5-0.2-2.5-0.5-2.9c-0.2-0.2-0.4-0.3-0.8-0.3c-0.3,0-0.6,0.2-0.9,0.5c-0.5,0.6-0.7,1.3-0.7,2.3v7.4h-1.7v-11.2h1.5
			l0.1,1.5c0.2-0.5,0.5-0.9,0.8-1.3s0.8-0.5,1.3-0.5c0.5,0,1,0.2,1.3,0.5C727.4,693.2,727.6,693.6,727.8,694.2z"/>
		<path class="st3" d="M743.7,695.5v1.6h-6.9v-1.6H743.7z"/>
		<path class="st3" d="M750,702c0.7,0.2,1.4,0.4,2.3,0.4s1.6-0.2,2.1-0.7c0.6-0.5,0.9-1.2,0.9-2.1c0-1.4-0.9-2.3-2.6-2.7
			c-0.5-0.1-1-0.1-1.6-0.1h-1.1v-1.8l1.1,0c1.8,0,3-0.4,3.4-1.3c0.2-0.3,0.3-0.7,0.3-1.2c0-0.7-0.2-1.3-0.7-1.7
			c-0.5-0.4-1.2-0.6-2.1-0.6c-1.3,0-2.5,0.4-3.5,1.3l-0.7-1.7c1.1-0.9,2.6-1.4,4.4-1.4c1.4,0,2.6,0.3,3.5,1c0.9,0.7,1.3,1.6,1.3,2.7
			s-0.3,1.9-1,2.5c-0.7,0.5-1.4,0.9-2.4,1.1c1,0.2,1.9,0.6,2.7,1.3c0.8,0.6,1.2,1.6,1.2,2.7c0,1.7-0.8,3-2.3,3.7
			c-0.9,0.4-2,0.6-3.3,0.6c-1.6,0-3-0.4-4.2-1.3l0.7-1.6C748.8,701.5,749.3,701.8,750,702z"/>
	</g>
	<g>
		<path class="st3" d="M982,641v118H806V641H982 M983,640H805v120h178V640L983,640z"/>
	</g>
	<g>
		<path class="st3" d="M845.1,704H842v-3.1h3.1V704z"/>
		<path class="st3" d="M860.2,703.3c-0.7,0.7-1.7,1-3.1,1c-0.8,0-1.6-0.2-2.3-0.5s-1.3-0.8-1.7-1.3c-0.9-1.1-1.4-2.5-1.4-4.2
			c0-1,0.2-2,0.6-2.9c0.4-0.9,1.1-1.6,1.9-2.2c0.8-0.6,1.9-0.8,3.1-0.8s2.2,0.3,2.9,1l-0.5,1.3c-0.8-0.5-1.7-0.8-2.7-0.8
			s-1.8,0.4-2.5,1.3c-0.7,0.8-1,1.9-1,3.2s0.3,2.4,1,3.2c0.7,0.8,1.5,1.2,2.5,1.2c1,0,1.9-0.3,2.7-0.8L860.2,703.3z"/>
		<path class="st3" d="M872.5,694.1c0.8,1.1,1.2,2.5,1.2,4.3s-0.4,3.2-1.3,4.3s-2.1,1.6-3.6,1.6c-0.8,0-1.5-0.2-2.2-0.5
			s-1.1-0.7-1.5-1.3c-0.8-1.1-1.2-2.5-1.2-4.2s0.4-3.2,1.3-4.2c0.9-1.1,2.1-1.6,3.7-1.6C870.5,692.4,871.6,693,872.5,694.1z
			 M868.8,702.8c1.3,0,2.2-0.6,2.7-1.9c0.3-0.7,0.4-1.4,0.4-2.1s0-1.3-0.1-1.7c-0.1-0.9-0.4-1.7-0.9-2.3c-0.5-0.6-1.2-0.9-2.1-0.9
			c-1.3,0-2.1,0.7-2.6,2c-0.2,0.7-0.4,1.5-0.4,2.2c0,1.4,0.2,2.5,0.6,3.4C866.9,702.4,867.6,702.8,868.8,702.8z"/>
		<path class="st3" d="M885.8,704h-1.5c-1.3,0-2.3-0.1-2.8-0.4c-0.3-0.2-0.6-0.3-0.8-0.5c-0.5-0.5-0.8-1.7-0.8-3.5v-10.2h-3.4V688
			h5.2v11.5c0,1.4,0.1,2.2,0.4,2.5c0.2,0.3,0.6,0.5,0.9,0.5c0.4,0,0.8,0.1,1.1,0.1h1.7L885.8,704z"/>
		<path class="st3" d="M897.9,695.5v1.6H891v-1.6H897.9z"/>
		<path class="st3" d="M910.1,698.8c0.4,0.5,0.7,1.3,0.7,2.3s-0.4,1.8-1.1,2.4c-0.7,0.6-1.7,0.9-2.8,0.9c-0.8,0-1.6-0.1-2.3-0.3
			c-0.8-0.2-1.3-0.4-1.7-0.7l0.5-1.3c0.3,0.2,0.7,0.4,1.4,0.5s1.3,0.3,2,0.3c0.7,0,1.3-0.2,1.7-0.5c0.4-0.3,0.7-0.7,0.7-1.2
			s-0.1-0.9-0.3-1.2c-0.2-0.3-0.6-0.5-1.2-0.7l-1.9-0.5c-1.1-0.3-1.8-0.7-2.2-1.2c-0.4-0.5-0.5-1.2-0.5-2s0.3-1.5,0.9-2.2
			c0.6-0.7,1.6-1,2.8-1h0.1c1.4,0,2.5,0.3,3.5,0.8l-0.4,1.3c-1-0.4-2-0.6-3-0.6c-0.6,0-1.2,0.2-1.6,0.5c-0.4,0.3-0.6,0.7-0.6,1.2
			s0.1,0.8,0.3,1.1c0.2,0.2,0.6,0.4,1.2,0.6l2,0.5C908.9,697.9,909.7,698.2,910.1,698.8z"/>
		<path class="st3" d="M919.8,694.2c0.5-1.2,1.2-1.7,2.4-1.7c1.4,0,2.2,1,2.4,3.1c0,0.4,0.1,0.8,0.1,1.3v7.2h-1.7v-7
			c0-1.3-0.1-2.2-0.3-2.5c-0.2-0.3-0.3-0.5-0.5-0.6c-0.1-0.1-0.3-0.1-0.5-0.1c-0.6,0-1,0.3-1.3,1c-0.2,0.4-0.2,1.2-0.2,2.2v7h-1.6
			v-6.9c0-1.5-0.2-2.5-0.5-2.9c-0.2-0.2-0.4-0.3-0.8-0.3c-0.3,0-0.6,0.2-0.9,0.5c-0.5,0.6-0.7,1.3-0.7,2.3v7.4h-1.7v-11.2h1.5
			l0.1,1.5c0.2-0.5,0.5-0.9,0.8-1.3s0.8-0.5,1.3-0.5c0.5,0,1,0.2,1.3,0.5C919.4,693.2,919.6,693.6,919.8,694.2z"/>
		<path class="st3" d="M935.7,695.5v1.6h-6.9v-1.6H935.7z"/>
		<path class="st3" d="M942,702c0.7,0.2,1.4,0.4,2.3,0.4s1.6-0.2,2.1-0.7c0.6-0.5,0.9-1.2,0.9-2.1c0-1.4-0.9-2.3-2.6-2.7
			c-0.5-0.1-1-0.1-1.6-0.1h-1.1v-1.8l1.1,0c1.8,0,3-0.4,3.4-1.3c0.2-0.3,0.3-0.7,0.3-1.2c0-0.7-0.2-1.3-0.7-1.7
			c-0.5-0.4-1.2-0.6-2.1-0.6c-1.3,0-2.5,0.4-3.5,1.3l-0.7-1.7c1.1-0.9,2.6-1.4,4.4-1.4c1.4,0,2.6,0.3,3.5,1c0.9,0.7,1.3,1.6,1.3,2.7
			s-0.3,1.9-1,2.5c-0.7,0.5-1.4,0.9-2.4,1.1c1,0.2,1.9,0.6,2.7,1.3c0.8,0.6,1.2,1.6,1.2,2.7c0,1.7-0.8,3-2.3,3.7
			c-0.9,0.4-2,0.6-3.3,0.6c-1.6,0-3-0.4-4.2-1.3l0.7-1.6C940.8,701.5,941.3,701.8,942,702z"/>
	</g>
	<g>
		<path class="st2" d="M1035,211v248H177V211H1035 M1036,210H176v250h860V210L1036,210z"/>
	</g>
</g>
</svg>
